<?xml version="1.0" encoding="UTF-8"?><svg id="Layer_1" xmlns="http://www.w3.org/2000/svg" viewBox="197.2 654.8 1516.9 414.4"><path d="M683.36,984.37l-.12-33.36c0-4.54-.73-7.63-2.19-9.25-2.68-3-7.63-4.5-14.85-4.5h-19.24c-10.07,0-15.58,2.84-16.56,8.52-.24,1.62-.37,3.37-.37,5.23l-.12,36.52c0,31.49,1.62,51.22,4.87,59.17,1.3,3.09,3.33,6.45,6.09,10.11h-45.66c2.6-6.17,4.12-11.32,4.57-15.46.44-4.14.91-9.25,1.4-15.34.89-12.74,1.34-27.31,1.34-43.71s-.04-27.7-.12-33.91c-.08-6.21-.16-12.28-.24-18.2-.57-24.59-1.34-39.34-2.31-44.26-.97-4.91-1.79-8.22-2.43-9.92l-2.19-5.48h45.66c-5.84,6.49-9.09,15.26-9.74,26.3-.24,3.33-.37,6.82-.37,10.47s.34,6.51,1.04,8.58c.69,2.07,1.85,3.59,3.47,4.57,2.19,1.46,7.34,2.19,15.46,2.19h11.57c8.28,0,13.39-.61,15.34-1.83,3.25-2.11,4.87-6.7,4.87-13.76,0-17.29-3.41-29.46-10.23-36.52h45.66c-2.43,5.36-3.92,10.31-4.44,14.85-.53,4.55-.91,8.91-1.16,13.09-.24,4.18-.49,9.03-.73,14.55-.24,5.52-.45,11.24-.61,17.17-.24,13.8-.37,26.3-.37,37.5,0,45.53,1.7,73.41,5.11,83.64.57,1.7,1.3,3.53,2.19,5.48h-45.66c4.06-5.44,6.53-10.12,7.43-14.06.89-3.94,1.58-8.58,2.07-13.94,1.05-10.31,1.58-25.12,1.58-44.44Z" fill="#f59e0b" stroke="#f59e0b" stroke-miterlimit="10" stroke-width="2"/><path d="M774.21,931.41c34.17,0,51.26,18.47,51.26,55.4,0,22.4-4.71,40.14-14.12,53.2-9.17,12.83-21.55,19.24-37.13,19.24s-27.96-6.41-37.13-19.24c-9.42-13.07-14.12-30.8-14.12-53.2,0-36.93,17.08-55.4,51.26-55.4ZM758.45,954.54c-3.21,7.3-4.81,19.6-4.81,36.89,0,37.09,6.86,55.64,20.58,55.64,7.31,0,12.56-4.95,15.77-14.85,3.21-9.9,4.81-23.5,4.81-40.79s-1.6-29.58-4.81-36.89c-3.21-7.3-8.46-10.96-15.77-10.96s-12.56,3.65-15.77,10.96Z" fill="#f59e0b" stroke="#f59e0b" stroke-miterlimit="10" stroke-width="2"/><path d="M834.14,1056.81c3.73-12.82,5.6-34.86,5.6-66.11,0-22.24-1.95-37.42-5.84-45.53-.97-2.03-2.07-3.94-3.29-5.72l-4.02-5.6h42.25c-1.22,4.79-2.03,8.6-2.44,11.44l-.85,7.31c9.41-14.12,21.41-21.18,35.98-21.18s24,7.91,28.31,23.74c6.41-10.96,14.89-18.22,25.45-21.79,3.73-1.3,7.93-1.95,12.6-1.95s8.89.99,12.66,2.98c3.77,1.99,6.96,4.81,9.56,8.46,5.11,7.39,7.67,17.49,7.67,30.32v13.03c0,24.84.34,40.4,1.03,46.69.69,6.29,1.2,10.45,1.52,12.48.49,3.57,1.3,7.39,2.44,11.44h-35.92c3.57-12.25,5.36-34.29,5.36-66.11,0-12.91-.65-21.57-1.95-25.99-1.3-4.42-2.98-7.63-5.05-9.62-2.07-1.99-4.89-2.98-8.46-2.98-10.47,0-18.79,6.17-24.96,18.51v15.58c0,24.84.34,40.4,1.04,46.69.69,6.29,1.2,10.45,1.52,12.48.49,3.57,1.3,7.39,2.44,11.44h-35.92c3.65-12.5,5.48-34.53,5.48-66.11,0-13.23-.65-21.97-1.95-26.24-1.3-4.26-2.96-7.38-4.99-9.37-2.03-1.99-4.81-2.98-8.34-2.98s-6.72.69-9.56,2.07c-2.84,1.38-5.4,3.21-7.67,5.48-4.3,4.22-7.67,9.66-10.1,16.31-.16,2.36-.24,4.79-.24,7.31v7.43c0,31.25,1.87,53.29,5.6,66.11h-34.94Z" fill="#f59e0b" stroke="#f59e0b" stroke-miterlimit="10" stroke-width="2"/><path d="M1097.62,1015.42c2.92,1.95,4.38,5.34,4.38,10.17s-.65,9.07-1.95,12.72c-1.3,3.65-3.57,7.06-6.82,10.23-7.3,7.14-18.43,10.71-33.36,10.71-17.37,0-30.6-6.41-39.69-19.24-8.04-11.44-12.05-26.91-12.05-46.39s5.44-35.06,16.31-46.26c10.31-10.63,24.27-15.95,41.88-15.95,12.26,0,21.83,3.57,28.73,10.71,5.44,5.68,8.16,12.24,8.16,19.66s-1.44,14.12-4.32,20.09c-2.88,5.97-7.12,11.1-12.72,15.4-11.53,8.93-27.64,13.64-48.33,14.12,1.71,16.31,6.82,27.23,15.34,32.75,3.08,1.95,7.18,2.92,12.3,2.92s10.55-2.68,16.31-8.04c5.76-5.36,11.04-13.23,15.83-23.62ZM1037.11,999.84c25.65-1.71,38.47-14.12,38.47-37.26,0-8.68-2.6-14.53-7.79-17.53-1.79-.97-4.14-1.46-7.06-1.46s-5.87.89-8.83,2.68c-2.96,1.79-5.54,4.71-7.73,8.77-4.71,8.85-7.06,22.52-7.06,41.03v3.77Z" fill="#f59e0b" stroke="#f59e0b" stroke-miterlimit="10" stroke-width="2"/><path d="M1228.51,897.2c0,13.64-9.98,24.84-29.95,33.6,16.56,3.09,27.35,10.59,32.38,22.52,1.62,3.98,2.43,9.23,2.43,15.77s-.96,13.6-2.86,21.18c-1.91,7.59-4.91,14.73-9.01,21.43-4.1,6.7-9.31,12.8-15.64,18.32-6.33,5.52-13.92,10.27-22.77,14.24-18.59,8.36-41.56,12.54-68.91,12.54,2.6-6.17,4.12-11.32,4.57-15.46.45-4.14.83-8.56,1.16-13.27.65-9.58.97-22.44.97-38.59,0-19.56-.33-37.42-.97-53.57l-1.34-33.48c-.33-8.44-1.06-14.32-2.19-17.65-1.79-5.28-4.71-10.02-8.77-14.24h64.4c19.64,0,33.85,1.95,42.61,5.84,9.25,4.06,13.88,11,13.88,20.82ZM1189.49,918.02c2.47-2.43,4.24-5.03,5.3-7.79,1.05-2.76,1.58-5.34,1.58-7.73s-.35-4.81-1.04-7.24c-.69-2.44-2.05-4.58-4.08-6.45-4.55-4.06-12.34-6.09-23.38-6.09-8.36,0-13.35.83-14.97,2.5-1.62,1.66-2.64,3.88-3.04,6.64-.41,2.76-.61,6.31-.61,10.65s.12,7.96.37,10.84c.24,2.88.89,5.3,1.95,7.24,2.03,3.98,6.19,5.97,12.48,5.97s11.48-.81,15.58-2.44c4.1-1.62,7.38-3.65,9.86-6.09ZM1149.25,960.27l.12,61.85c0,4.63.51,8.12,1.52,10.47,1.01,2.35,3.06,3.53,6.15,3.53,12.5,0,22.93-5.92,31.29-17.78,8.6-12.17,12.91-28,12.91-47.48,0-9.66-2.15-16.84-6.45-21.55-5.68-6.25-15.87-9.37-30.56-9.37-3.33,0-5.97.14-7.91.43-1.95.29-3.45,1.08-4.5,2.37-1.71,2.11-2.56,7.96-2.56,17.53Z" fill="#f59e0b" stroke="#f59e0b" stroke-miterlimit="10" stroke-width="2"/><path d="M1399.64,1056.81c3.73-12.82,5.6-34.86,5.6-66.11,0-22.24-1.95-37.42-5.84-45.53-.97-2.03-2.07-3.94-3.29-5.72l-4.02-5.6h42.25c-1.22,4.06-2.03,7.87-2.43,11.44l-.97,8.77c9.82-15.1,22.32-22.65,37.5-22.65,9.82,0,17.49,3.82,23.01,11.44,5.36,7.47,8.04,17.57,8.04,30.32v13.03c0,22.32.2,35.96.61,40.91.41,4.95.73,8.73.97,11.32.24,2.6.53,4.91.85,6.94.57,3.82,1.42,7.63,2.56,11.44h-35.67c3.73-12.82,5.6-34.86,5.6-66.11,0-12.5-.79-21.06-2.37-25.69-1.58-4.63-3.47-7.93-5.66-9.92-2.19-1.99-5.07-2.98-8.64-2.98-6.57,0-12.54,2.6-17.9,7.79-4.63,4.46-8.16,10.15-10.59,17.04-.16,2.19-.24,4.46-.24,6.82v6.94c0,31.25,1.87,53.29,5.6,66.11h-34.94Z" fill="#f59e0b" stroke="#f59e0b" stroke-miterlimit="10" stroke-width="2"/><path d="M1594.58,926.54c2.03,4.87,3.04,10.21,3.04,16.01s-.2,10.61-.61,14.43c-.41,3.82-1.02,7.51-1.83,11.08-1.7,7.55-4.34,13.6-7.91,18.14-3.57-22.08-9.37-35.47-17.41-40.18-2.84-1.62-5.91-2.43-9.19-2.43s-6.15.77-8.58,2.31c-2.44,1.54-4.5,3.77-6.21,6.7-3.49,5.84-5.24,13.41-5.24,22.71s.93,17.29,2.8,23.98c1.87,6.7,4.32,12.7,7.37,18.02,3.04,5.32,6.49,9.9,10.35,13.76,3.85,3.86,7.73,7.08,11.63,9.68,7.87,5.03,14.85,7.55,20.94,7.55-.33,2.11-1.38,4.18-3.17,6.21-1.79,2.03-3.73,3.61-5.84,4.75-8.6,0-18.47-2.92-29.58-8.77-20.7-10.96-34.66-26.95-41.88-47.97-2.68-7.71-4.02-15.6-4.02-23.68s.93-14.89,2.8-20.45c1.87-5.56,4.58-10.33,8.16-14.31,7.31-8.44,17.45-12.66,30.44-12.66,4.38,0,8.64.29,12.78.85,7.79,1.06,13.25,1.58,16.38,1.58s5.91-.43,8.34-1.28c2.43-.85,4.58-2.86,6.45-6.03Z" fill="#f59e0b" stroke="#f59e0b" stroke-miterlimit="10" stroke-width="2"/><path d="M1668.14,1056.81c3.73-12.82,5.6-34.86,5.6-66.11,0-13.07-.69-21.77-2.07-26.11-1.38-4.34-3.1-7.51-5.17-9.5-2.07-1.99-4.83-2.98-8.28-2.98s-6.57.65-9.38,1.95c-2.8,1.3-5.3,3-7.49,5.11-4.14,3.9-7.51,9.09-10.11,15.58v23.25c0,22.81.45,36.93,1.34,42.37,1.05,7.14,2.15,12.62,3.29,16.44h-35.92c1.95-6.82,3.25-15.87,3.9-27.15,1.46-28.25,2.19-49.04,2.19-62.4s-.04-22.48-.12-27.39c-.08-4.91-.2-9.8-.37-14.67-.41-17.69-1.2-28.79-2.37-33.3-1.18-4.5-2.27-7.79-3.29-9.86-1.02-2.07-2.13-3.96-3.35-5.66l-4.14-5.72h44.44c-2.27,8.2-3.59,15.83-3.96,22.89s-.63,12.8-.79,17.23c-.16,4.42-.33,9.07-.49,13.94-.24,11.36-.37,21.39-.37,30.07,6.41-10.79,14.89-17.94,25.45-21.43,3.73-1.3,7.91-1.95,12.54-1.95s8.83.99,12.6,2.98c3.77,1.99,6.92,4.81,9.44,8.46,5.19,7.39,7.79,17.49,7.79,30.32v13.03c0,24.84.34,40.4,1.04,46.69.69,6.29,1.16,10.45,1.4,12.48.57,3.57,1.42,7.39,2.56,11.44h-35.92Z" fill="#f59e0b" stroke="#f59e0b" stroke-miterlimit="10" stroke-width="2"/><path d="M482.75,858.26c.52,1.77,2.14,2.92,3.89,2.92,2.69,0,4.64-2.59,3.89-5.18l-3.21-11.03c-.62-2.15-2.86-3.37-5.02-2.76-2.15.62-3.38,2.87-2.75,5.02l3.2,11.02Z" fill="#1a1a1a" stroke="#000" stroke-miterlimit="10" stroke-width="2"/><path d="M289.66,911.13c.43,2.2,2.59,3.61,4.76,3.19,2.15-.43,4.41-.82,6.74-1.16l-.66-8.09c-2.65.38-5.21.82-7.65,1.3-2.2.44-3.62,2.57-3.19,4.76Z" fill="#f59e0b" stroke="#f59e0b" stroke-miterlimit="10" stroke-width="2"/><path d="M283.54,942.37c.43,2.2,2.6,3.62,4.76,3.19,7.13-1.42,15.35-2.47,24.03-2.46l-3.22-8.05c-8.07.22-15.68,1.24-22.38,2.57-2.19.44-3.62,2.57-3.19,4.76Z" fill="#f59e0b" stroke="#f59e0b" stroke-miterlimit="10" stroke-width="2"/><path d="M521.21,876.41l14.39-6.98c2.01-.98,2.85-3.4,1.88-5.41-.98-2-3.39-2.85-5.41-1.88l-14.39,6.98c-2.01.98-2.85,3.4-1.88,5.41.98,2.02,3.41,2.85,5.41,1.88Z" fill="#1a1a1a" stroke="#000" stroke-miterlimit="10" stroke-width="2"/><path d="M502.76,865.74c1.56,0,3.05-.91,3.72-2.44l5.53-12.74c.89-2.05-.05-4.44-2.1-5.33-2.04-.88-4.44.05-5.33,2.1l-5.54,12.75c-1.16,2.7.83,5.66,3.72,5.66Z" fill="#1a1a1a" stroke="#000" stroke-miterlimit="10" stroke-width="2"/><path d="M474.52,939.56c-10.82-5.93-22.92-8.14-35.23-6.77l-6.54,9.39c13.25-3.21,26.44-1.79,37.88,4.48,1.97,1.08,4.43.35,5.5-1.61,1.07-1.96.35-4.43-1.61-5.5Z" fill="#f59e0b" stroke="#f59e0b" stroke-miterlimit="10" stroke-width="2"/><path d="M553.82,1044.7c-.51-2.92-5.72-39.01-6.24-42.07-12.92-77.84-12.14-72.23-12.52-72.94-2.42-4.53-9.78-5.72-12.26-7.16-9.87-5.8-17.96-17.34-24.74-35.28l-.07-.54c-.85-6.16-9.78-2.19-34.19-3.65l-2.94,7.96c10.03.66,20.06.42,29.58.29l14.24,103.87c-45.85.22-49.77-7.11-77.05-2.4-13.02,2.11-26.17,5.33-36.82,13.06l-17.55,33.19-.4-4.7c-.65.15-1.28.32-1.92.51-9.25-9.41-22.61-15.8-37.67-18.02-12.17-1.79-25.3-1.1-41.35,2.15-2.19.44-3.61,2.58-3.16,4.77.44,2.19,2.56,3.6,4.78,3.16,24.32-4.92,50.69-5.04,69.36,11.48-16.77,10.33,4.8-3.6-103.24,3.34-12.16.78-24.62,1.5-36.98,1.82l25.34-31.3c4.13.62,32.27-11.1,81.35-9.37,20.09.66,33.86,4.92,42.61,21.01l-1.27-15.03c-10.76-10.81-24.25-13.52-41.06-14.07-26.46-.93-53.05,2.05-78.98,8.78l27.12-108.9c8.27-.35,15.47-.67,21.76-.94l-.66-8.01c-27.66,1.11-27.2.57-28.91,2.25-1.96.3-2.57,1.47-3.17,2.17-1.83.96-3.4,2.53-4.88,4.12-12.32,13.24-12.79,16.18-17.39,18.71-5.48,3.02-11.37,7.26-12.81,14.55-.19.96-21.87,110.81-22.61,114.57-.62,2.95-1.32,5.88-1.95,8.83.24.1.46.14.7.23,1.09,6.18,11.13,4.47,15.38,4.81,38.41,3.03,77.3-8.06,115.53-1.97,8.73,1.39,17.78,3.64,26.18.59,4.25-1.54,8.25-4.43,12.71-4.54,4.09-.1,7.37,2.14,11,3.79,21.18,9.66,58.63-9.79,147.45,1.36,16.69,2.1,18.06-9.01,17.7-10.47ZM219.15,1035.04c26.66-122.9,22.63-103.78,22.98-106.25.14-.93.39-2.65.54-3.02.3-.32,1.57-.79,2.33-1.07,9.45-3.53,16.56-14.16,22.54-22.36l-25.64,102.93c-.37.79-1.11,1.37-1.13,3.07l-21.62,26.7ZM412.78,1042.37c-10.91,2.18-8.67-.4-16.38-4.79,7.97-7.66,25.7-15.66,47-15.08,15.19.37,30.36,4.48,45.69.2,2.16-.6,3.42-2.83,2.82-4.99-.6-2.15-2.83-3.41-4.99-2.82-13.45,3.75-28.31-.12-43.31-.5-19.63-.46-43.72,6.34-55.13,19.94-3.49-.87-4.77-.77-5.31-.81l.3-6.44c.91-2.48,2.3-4.93,4.22-7.31,9.87-12.42,25.67-16.47,41.31-19,13.77-2.38,18.37-1.72,33.62.15,14.23,1.7,28.74,2.48,43.09,2.36,12.2,12.05,23.25,26.9,31.9,37.15-44.06-4.07-84.47-6.1-124.81,1.93ZM513.19,999.39c.29-1.85.83,5.26-11.69-87.09,12.72,19.26,23.04,18.75,26.25,21.08h0c1.23,10.77,4,20.74,16.56,102.46-6.39-7.44-18.99-24.1-31.12-36.44Z" fill="#1a1a1a" stroke="#000" stroke-miterlimit="10" stroke-width="2"/><path d="M473.64,913c-5.85-3.21-12.09-5.32-18.53-6.37l-2.72,7.37-.28.4c6.16.79,12.1,2.68,17.63,5.71,1.97,1.08,4.43.35,5.5-1.61,1.07-1.96.35-4.43-1.61-5.5Z" fill="#f59e0b" stroke="#f59e0b" stroke-miterlimit="10" stroke-width="2"/><path d="M277.12,972.24c.61,2.15,2.84,3.4,5,2.79,20.89-5.92,43.63-4.36,63.94,4.12l-15.91-13.41c-16.63-3.54-33.95-3.12-50.23,1.5-2.15.61-3.41,2.85-2.8,5Z" fill="#f59e0b" stroke="#f59e0b" stroke-miterlimit="10" stroke-width="2"/><path d="M470.52,972.94c1.97,1.08,4.43.35,5.5-1.61,1.07-1.96.35-4.42-1.61-5.5-17.49-9.58-38.32-9.45-58.01-.17l-11.05,15.86c.46-.13.9-.33,1.3-.62,20.95-15.42,44.83-18.4,63.86-7.96Z" fill="#f59e0b" stroke="#f59e0b" stroke-miterlimit="10" stroke-width="2"/><path d="M1394.51,1052.19c-2.19-1.71-4.1-4.14-5.72-7.31-2.68-5.27-4.02-15.18-4.02-29.71l.37-23.38c0-21.26-2.48-36.24-7.43-44.92-2.92-5.11-7-8.97-12.24-11.57-5.12-2.54-11.94-3.83-20.43-3.88-1.12.03-2.29.07-3.54.1-24.35.56-40.84,5.04-51.98,9.53-7.1,2.86-11.95,5.98-14.93,8.26-1.85,1.75-3.57,3.61-5.15,5.6.89-8.93,2.07-15.95,3.53-21.06h-43.22c3.73,4.22,6.33,8,7.79,11.32,3.57,8.12,5.36,23.3,5.36,45.53,0,31.25-1.87,53.29-5.6,66.11h35.92c-3.73-12.82-5.6-34.86-5.6-66.11v-5.84c0-1.95.04-3.85.12-5.72.97-2.76,2.19-5.36,3.65-7.79,6.98-11.77,14.12-16.07,21.43-12.91.49.21.97.46,1.44.75.65.38,1.44.96,2.33,1.82.03.03.06.06.09.09.3.29.6.62.91.99.07.08.14.14.2.22,0,0,0,.02,0,.02,2.69,3.24,5.91,9.17,8.38,20.05,5.28-19.02,14.08-28.69,20.64-33.5.84-.67,1.69-1.3,2.57-1.89,3.41-2.27,6.84-3.41,10.29-3.41s6.27.61,8.46,1.83c6.09,3.41,9.13,14.97,9.13,34.7v1.34c-18.42.33-33.72,4.26-45.9,11.81-6.17,3.9-11.14,8.81-14.91,14.73-3.77,5.93-5.66,12.87-5.66,20.82s2.6,14.85,7.79,20.7c5.92,6.49,13.72,9.74,23.38,9.74,16.96,0,30.03-5.52,39.2-16.56l3.77,14.12h35.31l-5.72-4.63ZM1357.26,1011.4c0,9.74-3.04,18.22-9.13,25.45-2.6,3.17-5.52,5.66-8.77,7.49-3.25,1.83-6.62,2.74-10.11,2.74s-6.39-1.38-8.7-4.14c-2.31-2.76-3.47-6.65-3.47-11.69,0-10.71,4.02-19.56,12.05-26.54,7.38-6.49,16.76-10.27,28.12-11.32v18.02Z" fill="#f59e0b" stroke="#f59e0b" stroke-miterlimit="10"/><g id="Leaf"><g id="Layer_2"><g id="Layer_3"><path d="M281.06,763.74c-7.93,4.97-1.92,28.18-.61,36.32,7.25,32.5,40.6,72.54,75.67,62.28,8.24,6.53,14.72,14.44,20.6,22.96,14.28,32.23,23.07,65.64,15.09,102.06-1.01-3.49-2.34-6.88-3.97-10.12,11.08-39.29-31.79-65.95-57.13-87.38-5.96-3.32-12.03-14.09-19.62-10.67-7.87,5.04-1.26,27.93.41,36.33,8.04,29.38,37.36,71.88,71.7,65.23,3.73,7.47,4.78,14.77,4.97,22.35-3.79,13.73-8.49,27.2-14.06,40.32-.58,1.34-.05,2.91,1.23,3.62,9.01,3.85,24.64-68.2,23.83-69.45.63-.45,1.02-1.16,1.06-1.93,1-12.56,3.66-24.93,7.94-36.78,2.21-.15,4.17-1.47,5.15-3.45,39.77-22.01,58.59-69.22,55.94-114.31-.13-2.2-1.35-4.18-3.26-5.29-7.52-5.38-22.89,16.35-28.05,21.37-20.86,27.53-40.98,65.59-35.17,99.7-.96,2.71-1.85,5.46-2.67,8.26-1.27-18.71-8.82-39.32-16.1-57.09-7.92-18.21-9.15-21.16-2.27-40.22,2.21-.35,4.04-1.89,4.77-4.01,7.4-5.65,13.13-10.26,18.41-14.82,18.12-11.59,70.85-81.75,42-81.39-40.98,11.08-72.08,50.77-73.31,93.19-.11,2.2.86,4.3,2.6,5.65-1.25,3.65-2.37,7.34-3.3,11.07-4.84-16.78-6.84-34.99-6.01-54.63,2.8-.29,5.15-2.24,5.95-4.94,26.62-21.28,28.77-58.98,28.02-89.82-.05-11.93-.1-24.28,1.47-35.87.35-2.7-.94-5.34-3.28-6.72-8.63-4.97-24.7,17.42-29.62,23.87-20.8,30.71-29.45,79.25-8.12,111.85-1.15,23.83,1.64,45.59,8.8,66.29-3.44-3.63-7.11-7.03-10.98-10.19-2.68-33.3-24.1-62.54-52.28-79.16-6.58-4.41-12.78-8.57-18.41-13.57-2.02-1.86-5.01-2.22-7.42-.89h0ZM384.75,969.48c.44.89.58,1.89.39,2.87-2.8-4.62-6-8.98-9.56-13.04-.54-5.35-8.34-29.62-15.42-25.62-3.24,3.19,6.47,11.69,7.09,16.67-9.47-9.28-19.16-18.41-27.72-28.52-16.56-2.25,20.8,28.47,22.7,31.55-4.31-2.47-8.31-5.43-11.95-8.82-1.8-1.61-4.64-5.03-6.95-2.43-4.01,5.83,22.97,21.67,28.09,21.11,3.63,4.17,6.86,8.67,9.64,13.45-40.85,3.58-70.97-55.8-68.95-91.47-.02-.39.06-.79.25-1.13.56-1.05,1.87-1.46,2.92-.9,26.2,24.6,71.15,44.89,69.47,86.29h0ZM431,916.52c-5.95,5.8-12.64,10.8-19.89,14.87,2.27-5.31,4.83-10.48,7.67-15.5,8.51-3.8,16.14-9.31,22.42-16.19,1.87-2.36,7.72-7.15,4.1-9.97-1.11-.65-2.52-.5-3.46.38-5.15,6-10.25,11.91-17.13,16.04,2.77-4.36,28.71-42.38,15.31-40.65-.85.35-1.47,1.1-1.67,1.99-2.27,9.43-6.84,17.3-10.82,23.77.09-4.71,8.64-17.41,4.71-19.86-6.77-3.41-12.6,27.58-12.91,32.54-5.48,8.24-10.16,16.98-13.96,26.12,3.58-41.24,23.72-87.63,58.29-110.34,5.08,33.94-7.91,72.24-32.67,96.8h0ZM450.08,752.28c-3.74,36.22-37.46,65.01-65.05,86.95,2.19-5.14,4.68-10.14,7.47-14.97,5.96-3.96,11.18-9.06,17.31-12.82,2.15-1.73,6.36-2.88,6.5-6.07-2.6-6.6-10.44,2.7-14.09,4.38,6.2-8.14,13.33-15.54,21.23-22.05,2.74-2.85,8.31-4.48,9.03-8.63-2.48-6.89-10.56,3.08-13.84,5.18-18.03,15.28-31.95,34.83-40.47,56.88,1.3-40.53,31.64-81.18,71.91-88.83h0ZM368.4,795.63s0,.02,0,.03c.36,1.02-.17,2.15-1.19,2.51,1.04-12.7,1.1-25.83,10.25-36.44,2.56-3.86,6.9-7.85,9.49-12.01.64-1.25.17-2.79-1.07-3.46-4.73-1.79-9.39,8.51-12.39,11.21,1.9-8.01,4.16-16.21,6.79-24.52.17-.57.18-1.18.01-1.75-.47-1.65-2.19-2.6-3.84-2.13-5.53,9.27-6.61,21.63-9.46,31.17-.12-6.48.3-12.97,1.24-19.38-.02-2.77,2.11-6.89-.42-8.97-8.92-5.66-7.05,44.02-4.45,48.04-.65,4.6-1.18,9.11-1.56,13.54-19.22-41.57-3.36-96.51,32.75-123.91,1.51-1.15,3.53.34,3.3,2.09-5.32,41.51,8.72,94.43-29.45,123.98h0ZM348.17,855.89v.02c1.28,1.01,2.55,2.03,3.81,3.07-15.72,3.75-32.1-6.63-43-17.15-19.28-18.42-28.12-45.65-27.04-71.95.06-1.57,1.66-2.94,3.1-2.08,32.97,24.33,62.57,40.45,68.96,85.43-5.51-4.39-11.06-8.57-16.48-13.13-2.05-5.84-3.65-11.81-4.82-17.89-.74-2.5-.23-5.94-2.38-7.76-8.25-2.79-1.53,14.29-1.13,18.06-9.18-8.64-14.53-19.59-21.55-30.04-15.2-6.42,12.22,29.12,14.54,30.98-5.16-3.12-9.88-6.92-14.03-11.3-1.84-1.62-4.27-5.73-6.96-3.14-4.48,6.74,26.52,26.3,32.62,25.38,4.69,3.99,9.55,7.77,14.33,11.51h0Z" fill="#1a1a1a" stroke="#000" stroke-miterlimit="10" stroke-width="2"/></g></g></g></svg>